<svg width="55" height="55" viewBox="0 0 55 55" fill="none" xmlns="http://www.w3.org/2000/svg">
<path d="M20.942 0.000278099C19.8962 0.00750865 18.8637 0.154918 17.8616 0.451954C16.8673 0.747007 15.9514 1.17466 15.1201 1.71928C16.0283 4.00764 18.3467 6.91245 21.0323 9.39218C23.8363 11.9814 27.0514 14.1813 29.1278 15.1734L29.1521 15.185L29.176 15.197C31.0841 16.1691 32.4349 17.6989 33.2146 19.3866C33.7168 20.4732 34.0093 21.6115 34.1799 22.7686C35.7088 21.586 37.3204 20.6391 38.959 19.9518C38.8343 17.8165 38.3606 15.5773 37.4978 13.3353C35.6883 8.63309 32.5277 4.84755 28.9483 2.5389C26.3756 0.879606 23.6149 -0.0181481 20.942 0.000278099ZM11.9559 4.93396C11.3546 5.85924 10.8614 6.89088 10.4867 8.01126C9.23538 11.7518 9.33687 16.4439 11.1465 21.1464C12.2417 23.9923 13.8323 26.5016 15.7109 28.5519C17.5615 29.1009 19.392 29.9492 21.1114 31.1003C22.4399 31.9897 23.6237 33.0079 24.6496 34.1152C24.9845 34.1959 25.3194 34.2647 25.654 34.3188C26.2914 32.67 27.1188 31.0296 28.1383 29.4382C28.7553 28.4745 29.4312 27.5492 30.1624 26.6676C30.1708 26.0621 30.1659 25.4754 30.1369 24.9152C30.0581 23.4003 29.8134 22.1047 29.3654 21.1351C28.9175 20.1655 28.3339 19.4881 27.2414 18.9316L27.2896 18.9552C24.5989 17.6694 21.239 15.3198 18.1467 12.4646C15.6887 10.1951 13.4086 7.65312 11.9559 4.93396ZM44.8569 20.7625C43.2683 20.7753 41.5878 21.1411 39.8877 21.841C36.2607 23.334 32.6188 26.3601 29.9252 30.5639C28.5471 32.7147 27.5569 34.9571 26.9412 37.1557C29.3581 41.1766 29.9516 45.7953 28.2106 49.6742C28.492 50.0728 28.8061 50.4478 29.1498 50.7952C31.6953 48.6174 34.6289 46.8134 36.7138 44.9609C37.8535 43.9486 38.7163 42.9462 39.1958 41.9917C39.6753 41.0369 39.8403 40.1611 39.591 38.9685L39.5764 38.8991L39.5668 38.8291C38.6197 32.0308 40.2812 28.0356 42.7027 25.5914C44.6498 23.6263 46.5879 22.5913 47.925 21.2249C46.959 20.9065 45.929 20.7537 44.8569 20.7625ZM51.5306 23.5559C49.5748 25.9665 47.1635 27.0799 45.7228 28.534C44.0674 30.205 42.9246 32.2163 43.757 38.2257C44.1578 40.269 43.8056 42.2312 42.9857 43.8635C42.1511 45.525 40.9029 46.876 39.5392 48.0877C37.4678 49.9283 35.0784 51.5043 33.0795 53.0418C35.3464 53.6258 37.9273 53.3432 40.5553 52.2613C44.1823 50.7685 47.8243 47.7422 50.5178 43.5383C53.2116 39.3344 54.4271 34.7792 54.2493 30.8892C54.1133 27.9142 53.1867 25.365 51.5308 23.556L51.5306 23.5559ZM43.757 38.2257C43.7499 38.189 43.7443 38.1525 43.7365 38.1158L43.761 38.2549C43.7599 38.2452 43.7586 38.2354 43.7571 38.2257H43.757ZM10.8006 29.8962C8.63863 29.8768 6.60202 30.3469 4.88789 31.2731C4.89965 31.2735 4.90988 31.2743 4.92164 31.2746C5.9366 31.3102 7.21076 31.1915 8.6778 31.3901C10.1447 31.5888 11.8632 32.2493 13.165 33.71C14.4669 35.1706 15.3596 37.2413 15.9814 40.2152L15.9961 40.2845L16.0057 40.3547C16.2942 42.4296 17.627 43.63 19.9378 44.7539C21.9094 45.7129 24.4406 46.3977 26.8434 47.0948C27.9195 42.3133 25.3662 36.4816 19.9269 32.8402C16.994 30.8767 13.779 29.9229 10.8009 29.8962H10.8006ZM1.26522 34.7298C-1.70673 39.8063 0.67671 47.2555 7.15807 51.5947C13.5353 55.8642 21.2458 55.3588 24.9568 50.9299C22.7886 50.3172 20.3306 49.6214 18.0732 48.5236C15.1625 47.1078 12.3881 44.7287 11.8283 41.0339C11.2952 38.5032 10.5828 37.1527 9.99242 36.4903C9.39967 35.8247 8.93748 35.6629 8.10481 35.5503C7.27215 35.4374 6.12783 35.518 4.77263 35.4707C3.71652 35.4338 2.4774 35.2835 1.26522 34.7299V34.7298ZM11.8284 41.0338C11.831 41.0454 11.8336 41.0562 11.836 41.0679L11.8117 40.9285C11.8166 40.9639 11.8231 40.9984 11.8285 41.0339L11.8284 41.0338Z" fill="#ECECEC"/>
</svg>
