<svg width="36" height="36" viewBox="0 0 36 36" fill="none" xmlns="http://www.w3.org/2000/svg">
<path d="M34.5645 10.0863C34.4809 9.88754 34.3404 9.71794 34.1606 9.5989C33.9808 9.47985 33.7698 9.41668 33.5542 9.41736H29.4039C28.9059 8.54842 28.2145 7.80578 27.3833 7.24695C26.5521 6.68813 25.6035 6.32811 24.6109 6.19479C23.6182 6.06147 22.6082 6.15842 21.6591 6.47814C20.7099 6.79785 19.8471 7.33175 19.1374 8.03848C18.516 8.64432 18.022 9.36825 17.6844 10.1677C17.3468 10.9672 17.1724 11.8261 17.1715 12.6939V13.5267C11.615 12.0796 7.06878 7.6016 7.02782 7.54699C6.88502 7.4065 6.70632 7.30799 6.51128 7.26224C6.31624 7.21649 6.11237 7.22526 5.92199 7.2876C5.73221 7.348 5.56226 7.45853 5.43009 7.60751C5.29793 7.7565 5.20845 7.93841 5.17111 8.13404C3.98336 14.7144 5.96294 19.1241 7.83331 21.6635C8.77143 22.9475 9.91001 24.0722 11.2054 24.9946C9.11662 27.3565 5.89468 28.5852 5.86738 28.5988C5.71331 28.656 5.57411 28.7471 5.46017 28.8655C5.34623 28.9839 5.26047 29.1265 5.20929 29.2827C5.15812 29.4388 5.14284 29.6045 5.16459 29.7674C5.18635 29.9303 5.24457 30.0862 5.33494 30.2234C5.44416 30.3873 5.85373 30.9197 6.85034 31.4248C8.0927 32.0392 9.73097 32.3532 11.7106 32.3532C21.3354 32.3532 29.3903 24.94 30.2094 15.3971L34.3324 11.2877C34.4805 11.1298 34.581 10.9332 34.622 10.7206C34.6631 10.5079 34.6432 10.2881 34.5645 10.0863ZM28.38 14.141C28.1897 14.3297 28.0776 14.5832 28.066 14.851C27.5062 23.4382 20.3251 30.1688 11.7106 30.1688C10.2634 30.1688 9.25314 29.9777 8.54323 29.7456C10.1132 28.8992 12.2976 27.4247 13.7174 25.3086C13.7999 25.1805 13.8546 25.0366 13.8781 24.8862C13.9016 24.7357 13.8934 24.582 13.854 24.4349C13.8142 24.2863 13.7439 24.1476 13.6475 24.0277C13.5511 23.9078 13.4308 23.8093 13.2942 23.7386C13.2806 23.7249 11.26 22.6737 9.52619 20.2846C7.56026 17.5814 6.72747 14.2912 7.05513 10.4959C9.21219 12.2707 13.3352 15.165 18.0862 15.9568C18.2431 15.982 18.4035 15.9731 18.5567 15.9307C18.7098 15.8883 18.852 15.8134 18.9736 15.7111C19.0924 15.6071 19.1879 15.4791 19.2538 15.3356C19.3197 15.192 19.3545 15.0362 19.3558 14.8783V12.6939C19.3579 11.6918 19.7043 10.7209 20.3371 9.94391C20.97 9.16692 21.8507 8.6311 22.8316 8.42627C23.8125 8.22145 24.834 8.36007 25.7249 8.8189C26.6158 9.27773 27.3218 10.0289 27.7247 10.9464C27.8117 11.1416 27.9535 11.3073 28.1328 11.4236C28.3121 11.5399 28.5212 11.6018 28.7349 11.6017H30.9193L28.38 14.141Z" fill="#F6F0E8"/>
</svg>
