<svg width="47" height="46" viewBox="0 0 47 46" fill="none" xmlns="http://www.w3.org/2000/svg">
<path d="M43.9619 22.8675C43.9619 22.7687 43.9619 22.6564 43.9574 22.5262C43.9529 22.1624 43.944 21.7537 43.935 21.3181C43.8991 20.0652 43.8362 18.8167 43.7374 17.6401C43.6027 16.0189 43.4051 14.6671 43.1356 13.6522C42.8513 12.593 42.2939 11.627 41.5192 10.8508C40.7445 10.0745 39.7797 9.51517 38.7211 9.22867C37.4501 8.88736 34.9622 8.67629 31.4593 8.54605C29.7932 8.48318 28.0103 8.44276 26.2274 8.42031C25.6032 8.41133 25.0239 8.40683 24.5029 8.40234H23.1826C22.6617 8.40683 22.0824 8.41133 21.4581 8.42031C19.6752 8.44276 17.8924 8.48318 16.2262 8.54605C12.7234 8.68078 10.2309 8.89185 8.96449 9.22867C7.90555 9.51446 6.94031 10.0736 6.16552 10.8499C5.39073 11.6263 4.8336 12.5927 4.54996 13.6522C4.27601 14.6671 4.0829 16.0189 3.94818 17.6401C3.84938 18.8167 3.78651 20.0652 3.75058 21.3181C3.73711 21.7537 3.73261 22.1624 3.72812 22.5262C3.72812 22.6564 3.72363 22.7687 3.72363 22.8675V23.119C3.72363 23.2178 3.72363 23.33 3.72812 23.4603C3.73261 23.824 3.7416 24.2327 3.75058 24.6683C3.78651 25.9213 3.84938 27.1697 3.94818 28.3463C4.0829 29.9676 4.2805 31.3193 4.54996 32.3343C5.12479 34.4854 6.81336 36.1829 8.96449 36.7578C10.2309 37.0991 12.7234 37.3101 16.2262 37.4404C17.8924 37.5033 19.6752 37.5437 21.4581 37.5661C22.0824 37.5751 22.6617 37.5796 23.1826 37.5841H24.5029C25.0239 37.5796 25.6032 37.5751 26.2274 37.5661C28.0103 37.5437 29.7932 37.5033 31.4593 37.4404C34.9622 37.3057 37.4546 37.0946 38.7211 36.7578C40.8722 36.1829 42.5608 34.4899 43.1356 32.3343C43.4095 31.3193 43.6027 29.9676 43.7374 28.3463C43.8362 27.1697 43.8991 25.9213 43.935 24.6683C43.9485 24.2327 43.9529 23.824 43.9574 23.4603C43.9574 23.33 43.9619 23.2178 43.9619 23.119V22.8675ZM40.7285 23.101C40.7285 23.1953 40.7285 23.2986 40.724 23.4199C40.7195 23.7701 40.7105 24.1564 40.7015 24.574C40.6701 25.7686 40.6072 26.9632 40.5129 28.0724C40.3917 29.5185 40.221 30.7041 40.01 31.4989C39.7315 32.5363 38.9142 33.3582 37.8813 33.6321C36.9382 33.8836 34.5625 34.0857 31.3336 34.2069C29.6989 34.2698 27.9385 34.3102 26.1825 34.3327C25.5673 34.3417 24.9969 34.3462 24.485 34.3462H23.2006L21.503 34.3327C19.7471 34.3102 17.9912 34.2698 16.352 34.2069C13.123 34.0812 10.7429 33.8836 9.80429 33.6321C8.77138 33.3537 7.95404 32.5363 7.67561 31.4989C7.46454 30.7041 7.29388 29.5185 7.17263 28.0724C7.07832 26.9632 7.01994 25.7686 6.98401 24.574C6.97054 24.1564 6.96605 23.7656 6.96156 23.4199C6.96156 23.2986 6.95707 23.1908 6.95707 23.101V22.8854C6.95707 22.7911 6.95707 22.6878 6.96156 22.5666C6.96605 22.2163 6.97503 21.8301 6.98401 21.4124C7.01545 20.2179 7.07832 19.0233 7.17263 17.914C7.29388 16.468 7.46454 15.2824 7.67561 14.4875C7.95404 13.4501 8.77138 12.6283 9.80429 12.3543C10.7474 12.1028 13.123 11.9007 16.352 11.7795C17.9867 11.7166 19.7471 11.6762 21.503 11.6537C22.1183 11.6448 22.6886 11.6403 23.2006 11.6403H24.485L26.1825 11.6537C27.9385 11.6762 29.6944 11.7166 31.3336 11.7795C34.5625 11.9052 36.9427 12.1028 37.8813 12.3543C38.9142 12.6328 39.7315 13.4501 40.01 14.4875C40.221 15.2824 40.3917 16.468 40.5129 17.914C40.6072 19.0233 40.6656 20.2179 40.7015 21.4124C40.715 21.8301 40.7195 22.2208 40.724 22.5666C40.724 22.6878 40.7285 22.7956 40.7285 22.8854V23.101ZM19.8459 29.011L30.2647 22.9483L19.8459 16.9754V29.011Z" fill="#F6F0E8"/>
</svg>
