<svg width="37" height="38" viewBox="0 0 37 38" fill="none" xmlns="http://www.w3.org/2000/svg">
<path d="M18.3937 12.0674C16.5139 12.0674 14.711 12.8142 13.3817 14.1434C12.0524 15.4727 11.3057 17.2756 11.3057 19.1555C11.3057 21.0353 12.0524 22.8382 13.3817 24.1675C14.711 25.4967 16.5139 26.2435 18.3937 26.2435C20.2736 26.2435 22.0765 25.4967 23.4058 24.1675C24.735 22.8382 25.4818 21.0353 25.4818 19.1555C25.4818 17.2756 24.735 15.4727 23.4058 14.1434C22.0765 12.8142 20.2736 12.0674 18.3937 12.0674ZM18.3937 23.7587C17.1725 23.7587 16.0012 23.2736 15.1377 22.41C14.2741 21.5464 13.7889 20.3752 13.7889 19.1539C13.7889 17.9327 14.2741 16.7614 15.1377 15.8978C16.0012 15.0343 17.1725 14.5491 18.3937 14.5491C19.615 14.5491 20.7863 15.0343 21.6498 15.8978C22.5134 16.7614 22.9985 17.9327 22.9985 19.1539C22.9985 20.3752 22.5134 21.5464 21.6498 22.41C20.7863 23.2736 19.615 23.7587 18.3937 23.7587Z" fill="#F6F0E8"/>
<path d="M25.7609 13.4592C26.6735 13.4592 27.4133 12.7194 27.4133 11.8067C27.4133 10.8941 26.6735 10.1543 25.7609 10.1543C24.8482 10.1543 24.1084 10.8941 24.1084 11.8067C24.1084 12.7194 24.8482 13.4592 25.7609 13.4592Z" fill="#F6F0E8"/>
<path d="M31.4746 10.1264C31.1197 9.20999 30.5775 8.37779 29.8825 7.68305C29.1874 6.98831 28.355 6.44634 27.4385 6.09182C26.366 5.68922 25.233 5.47153 24.0876 5.44801C22.6115 5.38363 22.1439 5.36523 18.4006 5.36523C14.6573 5.36523 14.1775 5.36523 12.7136 5.44801C11.5691 5.47032 10.4369 5.68806 9.36578 6.09182C8.44901 6.44592 7.61639 6.98775 6.92133 7.68254C6.22628 8.37734 5.68413 9.20975 5.32968 10.1264C4.927 11.1988 4.70981 12.332 4.6874 13.4773C4.62149 14.9519 4.60156 15.4194 4.60156 19.1643C4.60156 22.9076 4.60156 23.3843 4.6874 24.8513C4.7104 25.9979 4.92653 27.1292 5.32968 28.2037C5.68513 29.12 6.2278 29.9521 6.92302 30.6468C7.61825 31.3415 8.45074 31.8835 9.36731 32.2383C10.4364 32.6571 11.5691 32.8903 12.7167 32.9281C14.1928 32.9925 14.6604 33.0124 18.4037 33.0124C22.147 33.0124 22.6268 33.0124 24.0907 32.9281C25.2359 32.9048 26.3689 32.6876 27.4416 32.2858C28.3579 31.9305 29.19 31.388 29.885 30.6931C30.5799 29.9982 31.1223 29.166 31.4777 28.2497C31.8808 27.1767 32.097 26.0454 32.12 24.8988C32.1859 23.4242 32.2058 22.9566 32.2058 19.2118C32.2058 15.467 32.2058 14.9918 32.12 13.5248C32.1021 12.3633 31.8838 11.2136 31.4746 10.1264ZM29.6076 24.7379C29.5977 25.6213 29.4364 26.4965 29.1308 27.3254C28.9006 27.9215 28.5482 28.4628 28.0962 28.9145C27.6443 29.3662 27.1027 29.7183 26.5065 29.9481C25.6868 30.2523 24.8209 30.4136 23.9466 30.4249C22.4904 30.4923 22.0795 30.5092 18.3454 30.5092C14.6083 30.5092 14.2266 30.5092 12.7427 30.4249C11.8689 30.4142 11.0034 30.2529 10.1843 29.9481C9.58603 29.7197 9.04234 29.3682 8.58843 28.9165C8.13453 28.4647 7.78052 27.9226 7.5493 27.3254C7.24801 26.5054 7.08685 25.6405 7.07258 24.767C7.00666 23.3107 6.99133 22.8999 6.99133 19.1658C6.99133 15.4302 6.99133 15.0485 7.07258 13.5631C7.08248 12.6802 7.24373 11.8055 7.5493 10.9771C8.01684 9.76769 8.97489 8.81576 10.1843 8.35283C11.0038 8.04953 11.869 7.88831 12.7427 7.8761C14.2005 7.81019 14.6098 7.79179 18.3454 7.79179C22.0811 7.79179 22.4643 7.7918 23.9466 7.8761C24.821 7.88662 25.687 8.0479 26.5065 8.35283C27.1027 8.58318 27.6441 8.93564 28.0961 9.38758C28.548 9.83952 28.9005 10.381 29.1308 10.9771C29.4321 11.7972 29.5933 12.662 29.6076 13.5355C29.6735 14.9933 29.6903 15.4026 29.6903 19.1382C29.6903 22.8723 29.6903 23.274 29.6244 24.7394H29.6076V24.7379Z" fill="#F6F0E8"/>
</svg>
