<svg width="27" height="27" viewBox="0 0 27 27" fill="none" xmlns="http://www.w3.org/2000/svg">
<path fill-rule="evenodd" clip-rule="evenodd" d="M8.02974 27C7.29368 27 6.66379 26.7359 6.14007 26.2076C5.61547 25.6784 5.35316 25.0425 5.35316 24.3C5.35316 23.5575 5.61547 22.9216 6.14007 22.3925C6.66379 21.8642 7.29368 21.6 8.02974 21.6C8.7658 21.6 9.39569 21.8642 9.91941 22.3925C10.444 22.9216 10.7063 23.5575 10.7063 24.3C10.7063 25.0425 10.444 25.6784 9.91941 26.2076C9.39569 26.7359 8.7658 27 8.02974 27ZM21.4126 27C20.6766 27 20.0467 26.7359 19.523 26.2076C18.9984 25.6784 18.7361 25.0425 18.7361 24.3C18.7361 23.5575 18.9984 22.9216 19.523 22.3925C20.0467 21.8642 20.6766 21.6 21.4126 21.6C22.1487 21.6 22.779 21.8642 23.3036 22.3925C23.8274 22.9216 24.0892 23.5575 24.0892 24.3C24.0892 25.0425 23.8274 25.6784 23.3036 26.2076C22.779 26.7359 22.1487 27 21.4126 27ZM8.02974 20.25C7.02602 20.25 6.25651 19.8054 5.72119 18.9162C5.18587 18.0279 5.17472 17.145 5.68773 16.2675L7.49442 12.96L2.67658 2.7H0V0H4.3829L10.0706 12.15H19.4721L24.658 2.7L27 3.9825L21.8141 13.4325C21.5688 13.8825 21.2454 14.2313 20.8439 14.4788C20.4424 14.7263 19.9851 14.85 19.4721 14.85H9.50186L8.02974 17.55H24.0892V20.25H8.02974Z" fill="#ECECEC"/>
</svg>
